<?xml version="1.0" encoding="utf-8"?>
<!-- Generator: Adobe Illustrator 22.1.0, SVG Export Plug-In . SVG Version: 6.00 Build 0)  -->
<svg version="1.1" id="レイヤー_1" xmlns="http://www.w3.org/2000/svg" xmlns:xlink="http://www.w3.org/1999/xlink" x="0px"
	 y="0px" viewBox="0 0 805.4 192.5" style="enable-background:new 0 0 805.4 192.5;" xml:space="preserve">
<style type="text/css">
	.st0{fill:none;stroke:#333333;stroke-width:21;stroke-linecap:round;stroke-miterlimit:10;}
	.st1{fill:#333333;}
</style>
<path class="st0" d="M171.4,141.8c8,16.2,24.9,28.9,42.9,18.4c11.4-6.7,14.1-19,14.7-31.2c1.1-22.8-0.3-46-1.2-68.9
	c-0.2-5-0.4-10-0.7-15"/>
<polygon class="st1" points="253.3,13.5 241.7,29.2 259.8,36.5 240.8,41.1 249.9,58.4 232.5,49.7 228.4,68.8 220.5,50.9 205.1,62.9 
	210.6,44.2 191.1,43.5 207.4,32.7 192.9,19.6 212.3,21.7 209.6,2.4 223.1,16.5 233.4,0 234.7,19.5 "/>
<path class="st1" d="M185.4,138l-16,24.6c-3.6,5.5-11.1,7.1-16.6,3.5l-3.6-2.3c-29.8,25-73.5,28.8-107.8,6.6
	C-0.7,143-12.7,86.7,14.6,44.7C42,2.6,98.2-9.4,140.3,17.9c34.3,22.3,48.6,63.7,37.9,101.1l3.6,2.3C187.4,124.9,189,132.4,185.4,138
	z"/>
<g>
	<path class="st1" d="M289.6,76.7v-2.8c0-3.7-2.4-6.5-11-6.5c-4.6,0-12.7,1-18,2.5V56.6c7.3-1.5,15.9-2.3,22-2.3
		c14.3,0,23.1,6.9,23.1,20.7v36.2h-13.7l-1.2-5.5h-0.4c-6,4.2-11.6,6.3-17.1,6.3c-9.7,0-17.4-6.1-17.4-18.1
		c0-10.2,7.5-17.2,21.6-17.2H289.6z M289.6,87.2h-9.2c-5.7,0-8.2,1.9-8.2,5.5c0,4,2.8,6,6.7,6c3.9,0,7.8-1.2,10.7-2.9V87.2z"/>
	<path class="st1" d="M342.8,112.3c-16.5,0-28.5-9.2-28.5-29s12-29.1,28.5-29.1c16.5,0,28.6,9.5,28.6,29.1
		C371.3,102.8,359.2,112.3,342.8,112.3z M342.9,68c-8.7,0-12,5.5-12,15.4c0,9.9,3.3,15.3,12,15.3s11.9-5.4,11.9-15.3
		C354.8,73.4,351.5,68,342.9,68z"/>
</g>
<g>
	<path class="st1" d="M280.9,121.1c4.6,0,9.1,0.4,14.3,1.8v10.6c-2.7-0.9-7.9-2.3-12-2.3c-9.5,0-14.7,4.4-14.7,16.3
		c0,13.1,6.7,17.1,14,17.1c4.1,0,9-1,12.8-2.8v10.4c-4.5,1.7-10.2,2.4-14.3,2.4c-16.4,0-24.6-9.7-24.6-26.9
		C256.4,131.2,265.2,121.1,280.9,121.1z"/>
	<path class="st1" d="M326.6,173.8v-26.3c0-2.6-0.9-3.9-3.7-3.9c-2.6,0-6.1,1.4-9.1,3v27.2h-11.5v-54.9h11.5v18.9
		c4.5-2.7,8.9-4.5,12.6-4.5c7,0,11.7,3.3,11.7,12v28.5H326.6z"/>
	<path class="st1" d="M357.7,134.1v26.3c0,2.6,0.9,3.9,3.7,3.9c2.6,0,6.1-1.4,9.1-3v-27.2h11.5v39.7h-9.9l-0.9-4h-0.3
		c-4.7,2.9-9.2,4.8-13.1,4.8c-7,0-11.7-3.3-11.7-12v-28.5H357.7z"/>
	<path class="st1" d="M414.7,173.8v-26.3c0-2.6-0.9-3.9-3.7-3.9c-2.6,0-6.1,1.4-9.1,3v27.2h-11.5v-39.7h10.7v4h0.3
		c4.7-2.9,9.2-4.8,13.1-4.8c7,0,11.7,3.3,11.7,12v28.5H414.7z"/>
	<path class="st1" d="M446,159.4v14.4h-11.5v-54.9H446v30.7l3.2-1.4c3.6-1.6,7.3-4.9,7.3-12.3v-1.7h11.5c0,0.4,0,0.9,0,1.2
		c0,6.4-2.1,13.6-9.1,18.2l3.5,5.9c1.7,2.9,4.8,4.1,8.7,4.2v10.4c-1.2,0.2-2.4,0.3-3.7,0.3c-6.2,0-11.4-2.5-15.3-9.4l-3.7-6.7
		L446,159.4z"/>
	<path class="st1" d="M504.7,134.3l-0.4,9.8c-2.8-0.5-7.3-1.2-10.5-1.2c-4.8,0-6.8,0.8-6.8,2.8c0,1.9,3,2.6,6.8,3.3
		c5.9,1.1,13,2.7,13,12.1c0,9.3-6.2,13.5-17.4,13.5c-4,0-10.2-0.4-13.8-0.9l0.3-10.1c4.1,0.6,9.6,1.4,13,1.4c4.6,0,6.2-1.4,6.2-3.3
		c0-2.3-3.7-2.6-7.9-3.5c-5.4-1.1-11.9-3.2-11.9-11.8c0-9.6,6.8-13.2,17.2-13.2C496.4,133.2,501.2,133.6,504.7,134.3z"/>
	<path class="st1" d="M552.7,121.1c4.6,0,9.1,0.4,14.3,1.8v10.6c-2.7-0.9-7.9-2.3-12-2.3c-9.5,0-14.7,4.4-14.7,16.3
		c0,13.1,6.7,17.1,14,17.1c4.1,0,9-1,12.8-2.8v10.4c-4.5,1.7-10.2,2.4-14.3,2.4c-16.4,0-24.6-9.7-24.6-26.9
		C528.2,131.2,537,121.1,552.7,121.1z"/>
	<path class="st1" d="M592.3,174.6c-11.7,0-20.3-6.6-20.3-20.7s8.6-20.7,20.3-20.7s20.4,6.8,20.4,20.7
		C612.7,167.9,604.1,174.6,592.3,174.6z M592.4,143c-6.2,0-8.6,3.9-8.6,10.9s2.4,10.9,8.6,10.9s8.5-3.8,8.5-10.9
		S598.6,143,592.4,143z"/>
	<path class="st1" d="M630.4,134.1v26.3c0,2.6,0.9,3.9,3.7,3.9c2.6,0,6.1-1.4,9.1-3v-27.2h11.5v39.7h-9.9l-0.9-4h-0.3
		c-4.7,2.9-9.2,4.8-13.1,4.8c-7,0-11.7-3.3-11.7-12v-28.5H630.4z"/>
	<path class="st1" d="M687.4,173.8v-26.3c0-2.6-0.9-3.9-3.7-3.9c-2.6,0-6.1,1.4-9.1,3v27.2h-11.5v-39.7h10.7v4h0.3
		c4.7-2.9,9.2-4.8,13.1-4.8c7,0,11.7,3.3,11.7,12v28.5H687.4z"/>
	<path class="st1" d="M720.5,160.4c0,3.2,2.2,4,4.8,4c1.7,0,3.6-0.4,5.3-0.7v9.6c-3.3,0.7-8,1.2-11.2,1.2c-5.4,0-10.3-1.7-10.3-9.9
		v-20.8h-4.8V136l11.4-10.8h5v8.9H732v9.7h-11.5V160.4z"/>
	<path class="st1" d="M772,172.1c-5.5,1.6-10.6,2.5-16.1,2.5c-13.2,0-20.3-6.5-20.3-20.7c0-14.1,7.7-20.7,19.4-20.7
		c13.8,0,17.6,8.7,17.6,18.7v5.1h-25c0.1,5.7,4.2,7.6,11.2,7.6c3.2,0,8.7-1,13.2-2.3V172.1z M760.9,148.8c-0.1-3-1.2-6.7-6.7-6.7
		c-4.2,0-6.8,3.2-6.8,6.7H760.9z"/>
	<path class="st1" d="M804.4,145.7c-4.8,0.8-8.7,2.2-13.5,3.8v24.3h-11.5v-39.7h10.9v6.2c4-2.6,8.3-6.3,14.2-6.4V145.7z"/>
</g>
<g>
</g>
<g>
</g>
<g>
</g>
<g>
</g>
<g>
</g>
</svg>
